<?xml version="1.0" encoding="utf-8"?>
<!-- Generator: Adobe Illustrator 17.0.0, SVG Export Plug-In . SVG Version: 6.00 Build 0)  -->
<!DOCTYPE svg PUBLIC "-//W3C//DTD SVG 1.1//EN" "http://www.w3.org/Graphics/SVG/1.1/DTD/svg11.dtd">
<svg version="1.1" id="Layer_1" xmlns="http://www.w3.org/2000/svg" xmlns:xlink="http://www.w3.org/1999/xlink" x="0px" y="0px"
	 width="26px" height="20px" viewBox="0 0 26 20" enable-background="new 0 0 26 20" xml:space="preserve">
<g>
	<path fill="none" stroke="#B4B4B4" stroke-width="2" stroke-linecap="round" stroke-linejoin="round" stroke-miterlimit="10" d="
		M14.433,1.301c3.828-0.413,7.268,2.357,7.681,6.186c0.121,1.126-0.039,2.216-0.415,3.208l2.878,4.601l-6.286-0.828
		c-0.722,0.361-1.514,0.608-2.363,0.7c-3.829,0.412-7.269-2.357-7.681-6.187C7.972,6.435,9.105,4.062,11.02,2.635
		C11.985,1.917,13.15,1.439,14.433,1.301z"/>
</g>
<g>
	
		<path fill="#FFFFFF" stroke="#B4B4B4" stroke-width="2" stroke-linecap="round" stroke-linejoin="round" stroke-miterlimit="10" d="
		M10.337,3.669c-3.851,0-6.974,3.122-6.974,6.973c0,1.133,0.276,2.199,0.756,3.146l-2.368,4.882l6.161-1.496
		c0.756,0.281,1.57,0.442,2.425,0.442c3.851,0,6.974-3.122,6.974-6.974C17.311,6.791,14.188,3.669,10.337,3.669z"/>
</g>
</svg>
