<?xml version="1.0" encoding="utf-8"?>
<!-- Generator: Adobe Illustrator 17.0.0, SVG Export Plug-In . SVG Version: 6.00 Build 0)  -->
<!DOCTYPE svg PUBLIC "-//W3C//DTD SVG 1.1//EN" "http://www.w3.org/Graphics/SVG/1.1/DTD/svg11.dtd">
<svg version="1.1" id="Layer_1" xmlns="http://www.w3.org/2000/svg" xmlns:xlink="http://www.w3.org/1999/xlink" x="0px" y="0px"
	 width="40px" height="30px" viewBox="0 0 40 30" enable-background="new 0 0 40 30" xml:space="preserve">
<g>
	<path fill="none" d="M27.797,16.065c0,2.044-0.514,4.007-1.471,5.75c0.533-0.163,1.055-0.37,1.564-0.624
		c0.178-0.089,0.381-0.123,0.578-0.097l7.787,1.025l-3.402-5.439c-0.166-0.265-0.197-0.592-0.088-0.885
		c0.562-1.483,0.764-3.026,0.594-4.586c-0.547-5.076-4.803-8.903-9.9-8.903c-0.357,0-0.719,0.019-1.082,0.058
		c-1.75,0.187-3.414,0.836-4.826,1.87C23.336,5.075,27.797,10.053,27.797,16.065z"/>
	<path fill="#FFFFFF" d="M39.076,22.857l-4.27-6.829c0.543-1.634,0.727-3.325,0.541-5.035C34.691,4.901,29.58,0.306,23.459,0.306
		c-0.43,0-0.865,0.023-1.295,0.07c-2.127,0.227-4.154,1.019-5.863,2.29c-0.594,0.442-1.121,0.951-1.613,1.486
		c0.375-0.035,0.754-0.058,1.139-0.058c0.588,0,1.16,0.057,1.725,0.139c1.412-1.034,3.076-1.683,4.826-1.87
		c0.363-0.039,0.725-0.058,1.082-0.058c5.098,0,9.354,3.827,9.9,8.903c0.17,1.56-0.031,3.102-0.594,4.586
		c-0.109,0.293-0.078,0.62,0.088,0.885l3.402,5.439l-7.787-1.025c-0.197-0.025-0.4,0.008-0.578,0.097
		c-0.51,0.255-1.031,0.461-1.564,0.624c-0.469,0.851-1.049,1.644-1.725,2.372c0.043-0.004,0.084-0.002,0.127-0.007
		c1.301-0.141,2.57-0.499,3.777-1.065l9.592,1.263c0.045,0.006,0.088,0.009,0.131,0.009c0.338,0,0.656-0.171,0.842-0.459
		C39.279,23.603,39.281,23.185,39.076,22.857z"/>
	<path fill="#FFFFFF" d="M27.797,16.065c0-6.013-4.461-10.991-10.246-11.831c-0.565-0.082-1.137-0.139-1.725-0.139
		c-0.385,0-0.764,0.023-1.139,0.058C8.617,4.728,3.853,9.849,3.853,16.065c0,1.719,0.361,3.38,1.078,4.948l-3.514,7.246
		c-0.17,0.349-0.123,0.763,0.121,1.064c0.191,0.238,0.48,0.372,0.777,0.372c0.078,0,0.158-0.009,0.236-0.028l9.402-2.284
		c1.26,0.434,2.562,0.654,3.873,0.654l0,0c3.197,0,6.203-1.245,8.463-3.506c0.109-0.11,0.205-0.23,0.311-0.344
		c0.676-0.728,1.256-1.521,1.725-2.372C27.283,20.072,27.797,18.109,27.797,16.065z M22.877,23.117
		c-1.883,1.883-4.387,2.92-7.051,2.92l0,0c-1.174,0-2.34-0.213-3.467-0.633c-0.188-0.069-0.391-0.082-0.586-0.035l-7.631,1.854
		l2.799-5.771c0.137-0.281,0.135-0.61-0.008-0.889c-0.717-1.416-1.08-2.929-1.08-4.497c0-5.498,4.473-9.971,9.973-9.971
		c5.498,0,9.971,4.473,9.971,9.971C25.797,18.729,24.76,21.233,22.877,23.117z"/>
</g>
</svg>
