<?xml version="1.0" encoding="utf-8"?>
<!-- Generator: Adobe Illustrator 17.0.0, SVG Export Plug-In . SVG Version: 6.00 Build 0)  -->
<!DOCTYPE svg PUBLIC "-//W3C//DTD SVG 1.1//EN" "http://www.w3.org/Graphics/SVG/1.1/DTD/svg11.dtd">
<svg version="1.1" id="Layer_1" xmlns="http://www.w3.org/2000/svg" xmlns:xlink="http://www.w3.org/1999/xlink" x="0px" y="0px"
	 width="150px" height="150px" viewBox="0 0 150 150" enable-background="new 0 0 150 150" xml:space="preserve">
<g>
	<g>
		<path fill="#343466" d="M56.429,138.156c-2.171-0.68-4.078,0.389-4.702,2.375c-0.625,1.987,0.335,3.955,2.506,4.639l1.549,0.486
			l2.196-7.015L56.429,138.156z M56.947,147.703l-3.195-1c-3.012-0.946-4.596-3.84-3.703-6.694c0.896-2.858,3.853-4.332,6.862-3.387
			l3.196,1.001L56.947,147.703z"/>
	</g>
	<polygon fill="#343466" points="43.104,142.644 37.564,139.737 38.354,138.233 42.367,140.343 43.611,137.974 40.388,136.283 
		41.159,134.804 44.383,136.502 45.697,133.999 41.684,131.891 42.473,130.394 48.012,133.302 	"/>
	<polygon fill="#343466" points="32.279,136.58 31.733,129.02 24.215,130.042 30.945,121.748 32.285,122.84 28.199,127.873 
		33.251,127.148 33.581,132.236 37.667,127.202 39.007,128.292 	"/>
	<g>
		<path fill="#343466" d="M18.525,115.049c-1.666,1.29-2.014,3.533-0.742,5.174c1.274,1.64,3.53,1.865,5.195,0.574
			c1.669-1.29,2.017-3.532,0.746-5.173C22.452,113.982,20.195,113.758,18.525,115.049 M24.051,122.185
			c-2.404,1.859-5.731,1.394-7.558-0.962c-1.836-2.369-1.445-5.696,0.961-7.561c2.407-1.861,5.725-1.406,7.562,0.963
			C26.841,116.989,26.46,120.32,24.051,122.185"/>
	</g>
	<polygon fill="#343466" points="10.117,111.523 9.36,109.979 14.125,107.647 7.406,105.986 6.508,104.144 13.265,105.817 
		15.789,99.11 16.766,101.109 14.363,107.529 18.839,105.337 19.595,106.888 	"/>
	<g>
		<path fill="#343466" d="M8.109,94.427c-0.318-1.152-1.037-1.559-1.9-1.321c-0.877,0.241-1.296,0.962-0.977,2.114l0.408,1.484
			l2.878-0.801L8.109,94.427z M9.706,94.542l0.267,0.963l4.344-1.199l0.459,1.666L4.562,98.795l-0.913-3.309
			c-0.525-1.895,0.322-3.586,2.035-4.065c1.323-0.364,2.599,0.152,3.357,1.339l3.604-4.502l0.552,1.999L9.706,94.542z"/>
	</g>
	<path fill="#343466" d="M7.983,82.267l-0.207-2.925l-3.017,1.677L7.983,82.267z M1.133,81.274l10.309-5.907l0.129,1.862
		l-2.271,1.258l0.309,4.418l2.428,0.933l0.13,1.843L1.133,81.274z"/>
	<polygon fill="#343466" points="2.938,70.247 2.696,72.969 1,72.816 1.642,65.637 3.335,65.789 3.09,68.52 11.951,69.309 
		11.796,71.035 	"/>
	
		<rect x="7.146" y="55.519" transform="matrix(-0.218 0.9759 -0.9759 -0.218 69.0752 66.2237)" fill="#343466" width="1.72" height="10.533"/>
	<path fill="#343466" d="M13.942,50.304l-1.532-0.732l2.807-5.864l1.53,0.732L13.942,50.304z M13.979,43.114l-2.807,5.865
		l-1.531-0.734l2.807-5.863L13.979,43.114z"/>
	<polygon fill="#343466" points="16.555,30.433 17.663,29.105 24.479,34.795 27.335,31.372 28.653,32.469 24.685,37.226 	"/>
	
		<rect x="27.503" y="20.174" transform="matrix(-0.7323 0.681 -0.681 -0.7323 66.4715 24.7718)" fill="#343466" width="1.726" height="10.558"/>
	<g>
		<path fill="#343466" d="M32.732,21.496c-1.705-2.545-1.014-5.851,1.479-7.524c1.254-0.843,2.699-1.183,4.071-0.879l-0.248,1.642
			c-0.935-0.218-2.038,0.019-2.905,0.6c-1.738,1.169-2.113,3.417-0.933,5.181c1.184,1.762,3.411,2.259,5.146,1.097
			c0.646-0.438,1.193-1.036,1.481-1.679l-1.365-2.036l-2.418,1.625l-0.301-1.813l3.223-2.167l2.775,4.13
			c-0.346,1.255-1.238,2.467-2.477,3.303C37.769,24.648,34.44,24.041,32.732,21.496"/>
	</g>
	<polygon fill="#343466" points="43.174,9.059 48.912,6.589 49.582,8.144 45.426,9.931 46.479,12.384 49.819,10.949 50.479,12.476 
		47.14,13.911 48.254,16.505 52.41,14.711 53.08,16.268 47.34,18.735 	"/>
	<g>
		<path fill="#343466" d="M55.691,13.615l0.998-1.382c0.637,0.529,1.574,0.903,2.464,0.686c0.994-0.248,1.457-0.843,1.275-1.576
			c-0.19-0.764-0.778-1.091-1.896-1.285l-0.895-0.145c-1.708-0.291-2.714-1.078-3.045-2.399c-0.41-1.642,0.807-3.078,2.359-3.466
			c1.18-0.296,2.215-0.126,3.188,0.582l-0.854,1.478c-0.691-0.497-1.219-0.655-1.951-0.472c-0.69,0.169-1.254,0.739-1.079,1.441
			c0.167,0.668,0.746,1.024,1.875,1.199l0.883,0.165c1.546,0.254,2.72,0.908,3.073,2.333c0.434,1.725-0.554,3.227-2.522,3.72
			C58.026,14.881,56.6,14.5,55.691,13.615"/>
	</g>
	<polygon fill="#343466" points="67.475,3.97 64.753,4.213 64.605,2.516 71.781,1.873 71.933,3.569 69.198,3.813 69.988,12.67 
		68.266,12.827 	"/>
	
		<rect x="76.796" y="1.963" transform="matrix(-0.9992 -0.0391 0.0391 -0.9992 154.9753 17.5109)" fill="#343466" width="1.725" height="10.555"/>
	<polygon fill="#343466" points="84.85,2.51 86.549,2.794 85.086,11.524 89.474,12.259 89.189,13.949 83.103,12.924 	"/>
	<polygon fill="#343466" points="96.069,4.907 97.704,5.453 94.892,13.851 99.108,15.262 98.562,16.886 92.71,14.922 	"/>
	
		<rect x="104.121" y="8.797" transform="matrix(-0.8981 -0.4397 0.4397 -0.8981 193.0825 72.8724)" fill="#343466" width="1.722" height="10.549"/>
	<polygon fill="#343466" points="112.848,16.735 108.988,22.265 107.57,21.28 113.69,12.512 115.683,22.272 119.543,16.74 
		120.96,17.727 114.844,26.495 	"/>
	<g>
		<path fill="#343466" d="M121.826,25.391c2.232-2.076,5.592-1.914,7.627,0.273c1.023,1.103,1.586,2.466,1.504,3.865l-1.651,0.012
			c0.062-0.957-0.341-1.998-1.048-2.764c-1.418-1.525-3.689-1.543-5.238-0.103c-1.544,1.438-1.689,3.704-0.272,5.23
			c0.526,0.563,1.206,1.011,1.884,1.193l1.785-1.66l-1.976-2.126l1.735-0.575l2.635,2.829l-3.625,3.374
			c-1.291-0.145-2.623-0.831-3.635-1.921C119.516,30.831,119.594,27.469,121.826,25.391"/>
	</g>
	<path fill="#343466" d="M137.908,46.837l-3.014-5.735l1.502-0.788l3.011,5.737L137.908,46.837z M132.186,42.524l1.5-0.787
		l3.011,5.736l-1.498,0.787L132.186,42.524z"/>
	<g>
		<path fill="#343466" d="M138.54,61.99c0.465,2.228,2.331,3.375,4.368,2.951c2.042-0.424,3.297-2.219,2.834-4.454l-0.331-1.587
			l-7.2,1.499L138.54,61.99z M146.636,56.882l0.68,3.278c0.643,3.095-1.116,5.894-4.049,6.501c-2.929,0.611-5.657-1.255-6.3-4.346
			l-0.683-3.283L146.636,56.882z"/>
	</g>
	<polygon fill="#343466" points="148.883,71.555 149,77.807 147.308,77.843 147.22,73.307 144.543,73.362 144.615,77.001 
		142.951,77.033 142.882,73.391 140.059,73.446 140.144,77.978 138.449,78.013 138.328,71.756 	"/>
	<polygon fill="#343466" points="148.621,83.654 148.379,85.362 139.596,84.128 138.971,88.542 137.271,88.301 138.139,82.175 	"/>
	<polygon fill="#343466" points="144.743,94.788 145.49,92.178 147.115,92.638 145.15,99.545 143.52,99.078 144.271,96.45 
		135.751,94.025 136.223,92.367 	"/>
	<path fill="#343466" d="M136.568,103.16l-1.248,2.649l3.445,0.012L136.568,103.16z M142.045,107.371l-11.854,0.11l0.794-1.679
		l2.594,0.007l1.885-3.993l-1.658-1.999l0.788-1.666L142.045,107.371z"/>
	<g>
		<path fill="#343466" d="M133.052,112.879c2.444,1.823,2.89,5.161,1.1,7.562c-0.899,1.206-2.142,2.003-3.532,2.173l-0.312-1.622
			c0.955-0.109,1.91-0.697,2.534-1.533c1.243-1.667,0.857-3.91-0.837-5.169c-1.697-1.266-3.953-0.998-5.198,0.668
			c-0.464,0.624-0.782,1.369-0.839,2.071l1.957,1.454l1.736-2.321l0.881,1.602l-2.315,3.101l-3.97-2.963
			c-0.092-1.292,0.348-2.725,1.238-3.92C127.281,111.583,130.607,111.056,133.052,112.879"/>
	</g>
	<polygon fill="#343466" points="127.351,128.176 122.768,132.442 121.613,131.199 124.934,128.11 123.111,126.152 120.445,128.631 
		119.309,127.413 121.979,124.93 120.051,122.864 116.731,125.953 115.576,124.711 120.159,120.446 	"/>
	<polygon fill="#343466" points="118.131,136.003 116.691,136.956 111.79,129.577 108.084,132.042 107.138,130.619 112.284,127.196 
			"/>
	<g>
		<path fill="#343466" d="M105.205,133.622l-0.736,1.545c-0.725-0.412-1.715-0.612-2.553-0.229c-0.934,0.424-1.285,1.09-0.971,1.782
			c0.326,0.714,0.963,0.931,2.102,0.92l0.908-0.018c1.734-0.025,2.871,0.569,3.438,1.817c0.703,1.546-0.236,3.181-1.701,3.841
			c-1.107,0.51-2.161,0.527-3.246,0.006l0.572-1.611c0.772,0.364,1.321,0.424,2.012,0.115c0.651-0.297,1.1-0.959,0.8-1.624
			c-0.284-0.625-0.921-0.871-2.066-0.842l-0.9-0.001c-1.568,0.031-2.845-0.406-3.452-1.744c-0.739-1.625-0.04-3.283,1.814-4.125
			C102.676,132.799,104.148,132.908,105.205,133.622"/>
	</g>
	<polygon fill="#343466" points="97.387,146.454 91.329,148.127 90.873,146.491 95.264,145.272 94.547,142.686 91.021,143.661 
		90.576,142.05 94.102,141.074 93.346,138.342 88.959,139.554 88.506,137.912 94.564,136.24 	"/>
	<path fill="#343466" d="M72.699,145.079l6.479-0.128l0.034,1.697l-6.479,0.12L72.699,145.079z M79.121,141.892l0.03,1.691
		l-6.479,0.127l-0.03-1.696L79.121,141.892z"/>
	<rect x="52.023" y="75.016" fill="#343466" width="42.874" height="1.676"/>
	<polygon fill="#343466" points="42.156,44.597 47.164,39.593 47.164,63.243 42.156,63.244 	"/>
	<g>
		<path fill="#343466" d="M65.724,47.402c-0.001-1.685-1.185-3.162-3.196-3.162c-2.009,0-3.192,1.479-3.192,3.163
			c-0.001,1.678,1.183,3.161,3.192,3.162C64.539,50.564,65.724,49.08,65.724,47.402 M70.73,47.402c0,1.708-0.725,3.161-1.48,4.545
			l-6.162,11.297h-5.567l4.417-8.069c-4.384-0.267-7.612-3.557-7.612-7.773c0-4.417,3.526-7.808,8.202-7.808
			C67.207,39.593,70.73,42.984,70.73,47.402"/>
	</g>
	<polygon fill="#343466" points="77.801,44.597 82.809,39.592 82.809,63.243 77.801,63.243 	"/>
	<g>
		<path fill="#343466" d="M91.582,53.133l0.001-13.28l12.751-0.001l-0.001,4.648h-7.742l-0.001,3.489
			c0.494-0.06,0.991-0.097,1.518-0.097c4.744,0,7.905,3.066,7.905,7.809c0,4.745-3.161,7.804-7.905,7.804
			c-2.998,0-5.633-1.217-7.148-3.289l3.623-3.363c0.627,0.956,1.614,2.012,3.195,2.013c2.01,0,3.195-1.486,3.196-3.164
			c0-1.686-1.187-3.164-3.195-3.164c-1.515,0.001-2.536,0.826-2.967,1.945L91.582,53.133z"/>
		<path fill="#343466" d="M47.158,95.971c-0.001-1.581-1.086-2.896-2.766-2.896c-1.681,0-2.735,1.316-2.735,2.896
			c0,1.582,1.055,2.933,2.734,2.932C46.072,98.903,47.157,97.553,47.158,95.971 M44.392,88.428c4.218,0,7.774,3.325,7.774,7.543
			c0,1.848-0.691,3.489-1.779,4.811l-5.369,6.651l7.115,0.001l-0.001,4.647h-17.26l7.182-8.864
			c-3.129-0.987-5.404-3.815-5.403-7.245C36.649,91.753,40.175,88.428,44.392,88.428"/>
		<path fill="#343466" d="M75.013,100.387c0-4.054-2.931-7.312-7.052-7.312c-4.115-0.001-7.05,3.258-7.05,7.312
			c0.001,4.048,2.934,7.312,7.05,7.312C72.082,107.7,75.013,104.435,75.013,100.387 M67.961,88.428
			c6.589,0,12.06,5.367,12.06,11.959c0.001,6.586-5.471,11.959-12.06,11.959c-6.588,0.001-12.055-5.373-12.055-11.959
			C55.907,93.796,61.374,88.428,67.961,88.428"/>
	</g>
	<polygon fill="#343466" points="85.183,93.432 90.19,88.428 90.19,112.08 85.182,112.079 	"/>
	<g>
		<path fill="#343466" d="M96.33,101.968l-0.001-13.28h12.75l0.001,4.646h-7.742l-0.001,3.491c0.497-0.062,0.99-0.097,1.519-0.097
			c4.742,0,7.905,3.064,7.904,7.809c0.001,4.743-3.161,7.809-7.904,7.809c-3,0-5.635-1.225-7.149-3.296l3.622-3.363
			c0.627,0.957,1.615,2.013,3.196,2.013c2.009-0.001,3.196-1.486,3.196-3.163c0.001-1.678-1.188-3.163-3.196-3.163
			c-1.516,0.001-2.54,0.823-2.966,1.944L96.33,101.968z"/>
	</g>
</g>
</svg>
