<?xml version="1.0" encoding="utf-8"?>
<!-- Generator: Adobe Illustrator 17.0.0, SVG Export Plug-In . SVG Version: 6.00 Build 0)  -->
<!DOCTYPE svg PUBLIC "-//W3C//DTD SVG 1.1//EN" "http://www.w3.org/Graphics/SVG/1.1/DTD/svg11.dtd">
<svg version="1.1" id="Layer_1" xmlns="http://www.w3.org/2000/svg" xmlns:xlink="http://www.w3.org/1999/xlink" x="0px" y="0px"
	 width="44px" height="29px" viewBox="0 0 44 29" enable-background="new 0 0 44 29" xml:space="preserve">
<symbol  id="comp-icon-image-blue" viewBox="0 -29 43 29">
	<polygon fill="#4D5A9C" points="43,-29 0,-29 0,-3 43,-3 	"/>
	<polygon fill="#4D5A9C" points="31,-6 12,-6 14.618,0 28.382,0 	"/>
	<polygon fill="#4D5A9C" points="41,0 33,0 33,-3 41,-3 	"/>
	<path fill="#4D5A9C" stroke="#FFFFFF" stroke-width="2" stroke-miterlimit="10" d="M31.25-16c0-5.385-4.365-9.75-9.75-9.75
		s-9.75,4.365-9.75,9.75s4.365,9.75,9.75,9.75S31.25-10.615,31.25-16z"/>
	<polygon fill="#FFFFFF" points="2,-6 2,-9 10,-9 10,-6 	"/>
	<polygon display="none" fill="none" points="0,0 43,0 43,-29 0,-29 	"/>
</symbol>
<use xlink:href="#comp-icon-image-blue"  width="43" height="29" id="XMLID_14_" y="-29" transform="matrix(1 0 0 -1 0 0)" overflow="visible"/>
</svg>
