<?xml version="1.0" encoding="utf-8"?>
<!-- Generator: Adobe Illustrator 17.0.0, SVG Export Plug-In . SVG Version: 6.00 Build 0)  -->
<!DOCTYPE svg PUBLIC "-//W3C//DTD SVG 1.1//EN" "http://www.w3.org/Graphics/SVG/1.1/DTD/svg11.dtd">
<svg version="1.1" id="Layer_1" xmlns="http://www.w3.org/2000/svg" xmlns:xlink="http://www.w3.org/1999/xlink" x="0px" y="0px"
	 width="26px" height="20px" viewBox="0 0 26 20" enable-background="new 0 0 26 20" xml:space="preserve">
<g>
	<path fill="#FFFFFF" d="M14.268,4.616c0.537,0,1.039,0.206,1.414,0.581c0.375,0.375,0.581,0.877,0.581,1.414
		c0,0.537-0.206,1.039-0.581,1.414l-2.828,2.828c-0.375,0.375-0.877,0.581-1.415,0.581c-0.537,0-1.04-0.206-1.414-0.581
		C9.65,10.479,9.444,9.977,9.444,9.439c0-0.537,0.206-1.039,0.581-1.414l2.829-2.829C13.228,4.822,13.73,4.616,14.268,4.616
		 M14.268,2.616c-1.025,0-2.051,0.389-2.828,1.167L8.611,6.611c-1.556,1.556-1.556,4.101,0,5.657
		c0.778,0.778,1.803,1.167,2.829,1.167c1.025,0,2.051-0.389,2.829-1.167l2.828-2.828c1.556-1.556,1.556-4.101,0-5.657l0,0
		C16.318,3.005,15.293,2.616,14.268,2.616L14.268,2.616z"/>
</g>
<g>
	<path fill="#FFFFFF" d="M14.561,8.566L14.561,8.566c0.537,0,1.039,0.206,1.414,0.581c0.375,0.375,0.581,0.877,0.581,1.414
		c0,0.537-0.206,1.04-0.581,1.414l-2.828,2.828c-0.375,0.375-0.877,0.581-1.414,0.581c-0.537,0-1.04-0.206-1.414-0.581
		c-0.375-0.375-0.581-0.877-0.581-1.414c0-0.537,0.206-1.039,0.581-1.414l2.828-2.828C13.521,8.772,14.023,8.566,14.561,8.566
		 M14.561,6.566c-1.025,0-2.051,0.389-2.829,1.167L8.904,10.56c-1.556,1.556-1.556,4.101,0,5.657l0,0
		c0.778,0.778,1.803,1.167,2.828,1.167c1.025,0,2.051-0.389,2.828-1.167l2.828-2.828c1.556-1.556,1.556-4.101,0-5.657
		C16.611,6.955,15.586,6.566,14.561,6.566L14.561,6.566z"/>
</g>
</svg>
