<?xml version="1.0" encoding="utf-8"?>
<!-- Generator: Adobe Illustrator 17.0.0, SVG Export Plug-In . SVG Version: 6.00 Build 0)  -->
<!DOCTYPE svg PUBLIC "-//W3C//DTD SVG 1.1//EN" "http://www.w3.org/Graphics/SVG/1.1/DTD/svg11.dtd">
<svg version="1.1" id="Layer_1" xmlns="http://www.w3.org/2000/svg" xmlns:xlink="http://www.w3.org/1999/xlink" x="0px" y="0px"
	 width="44px" height="35px" viewBox="0 0 44 35" enable-background="new 0 0 44 35" xml:space="preserve">
<symbol  id="New_Symbol_1" viewBox="0 -35 43 35">
	<polygon fill="#4D5A9C" points="29,-35 0,-35 0,-13 29,-13 	"/>
	<polygon fill="#4D5A9C" points="43,-33.073 31,-29.125 31,-19.125 43,-15.177 	"/>
	<polygon fill="none" stroke="#FFFFFF" stroke-width="2" stroke-miterlimit="10" points="22,-29 6,-29 6,-19 22,-19 	"/>
	<path fill="#4D5A9C" d="M13.125-9.312c0,2.796-2.267,5.062-5.062,5.062S3-6.517,3-9.312s2.267-5.062,5.062-5.062
		S13.125-12.108,13.125-9.312z"/>
	<path fill="#4D5A9C" d="M26.75-7.188C26.75-3.217,23.531,0,19.562,0c-3.97,0-7.188-3.217-7.188-7.188
		c0-3.969,3.218-7.188,7.188-7.188C23.531-14.375,26.75-11.156,26.75-7.188z"/>
	<polygon display="none" fill="none" points="0,0 43,0 43,-35 0,-35 	"/>
</symbol>
<use xlink:href="#New_Symbol_1"  width="43" height="35" y="-35" transform="matrix(1 0 0 -1 0 0)" overflow="visible"/>
</svg>
